<?xml version="1.0" encoding="UTF-8"?>
<svg id="Layer_1" data-name="Layer 1" xmlns="http://www.w3.org/2000/svg" viewBox="0 0 1000 1000">
  <defs>
    <style>
      .cls-1 {
        fill: #56362c;
        stroke-width: 0px;
      }
    </style>
  </defs>
  <path class="cls-1" d="m499.18,12.02c269.44-2.15,494.02,220.48,488.32,499.06-5.25,256.77-218.63,482.06-499.56,475.77C230.15,981.07,13.75,770.9,12.4,501.62,11.04,230.29,232.4,10.28,499.18,12.02Zm-3.48,954.59c257.09,3.32,468.14-205.85,471.36-461.28,3.25-258.19-206.98-472.5-464.99-473.28C244.77,31.27,37.45,236.15,32.8,491.29c-4.78,262.08,206.48,472.88,462.9,475.33Z"/>
  <path class="cls-1" d="m494.93,175.66c173.45.48,309.11,138.78,309.34,309.43.22,170.76-139.77,310.67-311.29,309.67-168.54-.99-306.91-138.89-307.6-308.15-.7-172.82,139.39-311.11,309.55-310.95Zm57.62,214.46c0,4.58,0,9.16,0,13.73-.03,29.93.04,59.86-.17,89.79-.04,5.14,1.5,7,6.8,6.7,7.88-.44,15.81-.29,23.71-.06,4.01.12,5.14-1.43,5.13-5.27-.11-51.01-.13-102.03-.06-153.04,0-4.1-1.58-5.9-5.6-5.9-14.31,0-28.61-.03-42.92-.12-2.67-.02-4.15,1.1-4.95,3.61-8.85,27.68-17.74,55.36-26.65,83.03-1.84,5.71-3.75,11.41-5.71,17.08-.35,1-.53,2.51-1.83,2.62-1.79.16-1.73-1.66-2.2-2.77-.66-1.55-1.21-3.16-1.73-4.76-3.73-11.4-7-22.96-11.24-34.16-7.57-19.98-13.58-40.48-20.82-60.56-.85-2.36-1.67-4.06-4.52-4.04-14.49.1-28.99.1-43.48.22-3.55.03-5.49,1.55-5.23,5.59.33,5.25.21,10.54.21,15.81-.03,45.56-.02,91.11-.23,136.67-.02,4.72,1.42,6.25,6.1,6.04,7.7-.34,15.44-.27,23.15-.03,4.25.13,6.14-1.08,6.12-5.68-.16-32.19-.15-64.38-.14-96.56,0-2.48-1.1-5.07.54-8.33,11.45,36.18,24.81,70.8,36.5,106,1.17,3.53,2.61,4.82,6.31,4.63,6.2-.31,12.44-.4,18.62,0,4.17.28,6.48-1.26,7.46-5.06,4.07-15.65,10.91-30.35,15.65-45.76,6.16-20.02,14.39-39.33,21.17-59.4Zm-196.36,93.36c1.13,5.3,2.05,9.3,2.81,13.34.46,2.47,1.74,3.48,4.25,3.44,5.46-.09,10.92-.02,16.38.03,2.8.02,4.02-1.16,4.01-4.1-.11-26.92-.16-53.85-.11-80.77,0-3.45-1.35-4.75-4.69-4.61-19.94.83-39.88.82-59.82.05-3.54-.14-5.1,1.34-4.97,5.05.2,5.64.23,11.3-.05,16.94-.22,4.39,1.35,6.12,5.81,6.01,8.28-.21,16.56-.08,24.85-.02,2.24.02,5.16-.06,4.37,3.4-2.09,9.07-4.82,18.01-13.37,23.3-20.86,12.9-52.01,7.51-62.33-20-7.4-19.72-6.83-39.58,1.61-58.76,6.4-14.56,18.87-23.62,40.5-22.27,14.37.9,23.37,7.53,29.19,23.14.98,2.62,2.22,4.08,5.24,4,8.84-.24,17.69-.47,26.54-.32,5.15.09,5.33-2.45,4.53-6.39-3.01-14.8-10.69-26.71-22.15-36.32-16.87-14.16-36.35-18.2-57.98-16.35-27.03,2.3-52.53,21.04-62.53,46.94-6.42,16.63-8.38,33.97-6.47,51.55,1.38,12.73,4.94,24.96,11.77,36.13,12,19.66,29.77,31.44,51.73,35.98,16.01,3.31,32.24,2.22,46.72-7.36,4.98-3.3,9.44-7.2,14.19-12.01Zm261.22-65.33s-.05,0-.08,0c0,24.64-.03,49.29.02,73.93.02,8.17.12,8.16,7.99,8.15,8.28,0,16.56-.14,24.83.09,3.67.1,4.87-.91,4.79-4.8-.31-16.17-.13-32.35-.37-48.53-.06-4.34,1.13-5.84,5.77-5.67,11.08.4,22.2.34,33.29.08,9.43-.22,18.93-1.69,27.44-5.54,31.25-14.17,34.05-56.46,19.16-76.98-11.27-15.52-26.81-22.5-45.55-22.71-23.32-.26-46.65-.13-69.98-.18-7.23-.02-7.3-.02-7.31,7.11-.02,25.02,0,50.04,0,75.06Zm-349.14,174.88c-.75,9.99,2.78,20.27,8.16,30.26,9.78,18.17,33.89,29.61,53.21,22.46,11-4.07,18.18-3.11,24.73,6.18,2.12,3,4.42,2.4,6.91-.23,7.7-8.13,7.78-8.05-.92-14.94-.74-.58-1.43-1.27-2.26-1.68-3.33-1.63-2.94-3.57-.94-6.16,13.16-17.06,14.54-35.98,8.48-55.94-8.98-29.61-37.11-40.9-64.51-32.57-18.17,5.53-33.69,28.65-32.87,52.62Zm260.7,12.85s.09,0,.13,0c0-5.83.12-11.66-.03-17.48-.15-5.82-1.88-10.52-7.06-14.42-10.55-7.94-22.12-8.4-34.31-6.65-11.98,1.72-20.63,7.24-23.56,19.89-.89,3.85-.68,5.84,3.83,5.61,2.81-.14,5.64-.05,8.46.04,2.49.08,4.12-.87,5.54-3.03,5.09-7.76,14.25-10.77,22.95-7.55,3.93,1.45,6.64,4.31,6.85,8.74.21,4.41-3.53,5.38-6.57,6.66-1.87.79-3.98,1.03-6.01,1.39-7.56,1.37-15.18,2.43-22.67,4.1-9.59,2.14-15.15,8.78-16.11,18.4-.97,9.78,3.59,17.81,12.5,21.83,11.84,5.35,23.35,4.07,34.61-1.83,1.91-1,3.94-2.86,5.99-.33,4.22,5.19,9.84,5.59,15.86,4.88,3.1-.37,7.21.29,7.78-3.84.56-4.03,1.38-8.74-4.05-11.08-3.23-1.39-4.37-4.22-4.21-7.86.25-5.82.07-11.65.07-17.48Zm163.34,15.78c-2.22-14.42-8.76-26.78-12.56-40.07-4.09-14.32-4.19-14.29-19.08-14-5.62.11-6.28,1.13-4.09,6.46,8.88,21.51,15.73,43.81,25.49,64.97,2.72,5.9.67,11.11-2.63,15.84-3.08,4.42-7.61,4.98-12.61,3.38-3.38-1.08-4.71.43-4.93,3.92-.76,12.09-.85,12.09,10.96,12.09,1.88,0,3.83.28,5.64-.09,6.97-1.45,13.13-4.13,16.8-10.89,9.47-17.44,13.85-36.85,21.55-54.97,4.99-11.74,7.55-24.41,13.54-35.76,1.67-3.16.21-4.28-2.43-4.53-3.55-.33-7.15-.06-10.7-.33-3.65-.28-5.65,1.35-6.57,4.73-3.75,13.78-10.05,26.7-13.64,40.54-.77,2.95-1.37,6.15-4.75,8.72Zm-261.83,15.33c-.63,6.92,2.29,8.63,7.45,7.89,1.84-.26,3.76-.17,5.63-.03,4.47.33,6.33-1.23,6.27-6.11-.27-19.74-.11-39.49-.19-59.24-.05-11.66-.12-11.66-11.8-11.76-7.2-.06-7.47.22-7.46,7.65,0,13.73.12,27.46-.06,41.19-.09,6.47-2.81,11.66-9.19,14.14-12.41,4.82-21.5-1.12-21.82-14.52-.29-12.41-.12-24.82-.13-37.23-.01-11.57-.43-11.86-12.16-11.31-3.79.18-5.34,1.6-5.31,5.47.13,16.36-.37,32.74.25,49.08.31,8.08,2.61,16.01,10.94,20.27,13.26,6.78,25.55,5.9,37.59-5.48Zm189.9-28.34h-.06c0,6.59-.08,13.18.02,19.76.15,10.46,3.62,14.41,13.82,16.61,4.13.89,8.2.99,12.33.52,6.72-.76,6.76-1.22,6.35-11.3-.24-6.02-4.41-3.13-6.95-3.31-3.83-.28-7.2-.3-7.2-5.56,0-12.98-.18-25.96-.36-38.94-.04-2.86,1.07-4.21,4-4,1.5.11,3.01-.02,4.51.05,4.05.18,6.55-1.06,6.12-5.78-.38-4.2.03-8.35-6.37-8.29-8.27.08-8.28-.24-7.95-8.62.54-13.81.54-13.7-13.35-13.61-3.84.02-5.55,1.01-5.13,5.16.4,3.92.03,7.91.3,11.84.27,3.98-.96,5.33-5.17,4.7-2.46-.37-5.82-1.56-7.66,1.7-3.51,6.22.17,12.88,7.25,12.67,4.27-.13,5.66,1.41,5.54,5.52-.21,6.96-.06,13.93-.06,20.89Zm-55.79-15.99c-.12,0-.23,0-.35,0,0-15.8,0-31.59,0-47.39,0-2.24.31-5.4-2.91-4.89-5,.8-10.3-2.75-14.95,1.1-.42.35-.33,1.42-.33,2.16-.11,31.97-.21,63.93-.25,95.9,0,2.42.22,5.49,3.63,5.22,5.06-.41,10.55,1.98,15.08-2.03.37-.33.08-1.41.08-2.15,0-15.98,0-31.95,0-47.93Zm35.04,13.9c-.11,0-.23,0-.34,0,0-8.45.02-16.9,0-25.35-.04-14.1-.04-14.02-14.34-13.38-3.84.17-5.19,1.68-5.16,5.53.15,19.15.04,38.31.12,57.46.07,16.36-3.23,13.82,14.91,14.01.19,0,.38,0,.56-.01,3.21-.16,4.43-1.55,4.35-5.03-.26-11.07-.1-22.15-.1-33.22Zm-9.91-66.46c-2.05,0-4.11.09-6.16-.03-2.02-.12-3.37.57-3.43,2.68-.13,4.63-1.59,9.76,1.15,13.67,2.14,3.06,6.29.27,9.53.54.37.03.75-.01,1.12-.01q7.34-.01,7.35-7.39.01-9.57-9.56-9.46Z"/>
  <path class="cls-1" d="m271.11,143.12c3.78,7.54,6.7,14.66,10.73,21.09,5.3,8.45,9.6,17.44,14.71,25.97,1.41,2.36,2.45,4.04-.81,5.87-2.93,1.64-4.77,1.39-6.43-1.56-6.44-11.45-12.94-22.86-19.47-34.26-4.18-7.3-8.43-14.57-12.68-21.82-.56-.95-1.5-1.67-1.13-2.99,1.19-4.34,10.96-7.48,14.43-4.41,12.81,11.33,26.73,21.34,39.03,33.27,1.89,1.83,4.09,5.32,6.71,3.74,2.4-1.45.93-5.2.5-7.95-2.6-16.68-5.24-33.36-7.84-50.05-.76-4.9,5.37-11.38,10.11-10.9,1.76.18,1.96,1.52,2.5,2.65,9.11,18.95,19.71,37.07,30.45,55.12,2.93,4.92,2.29,7.66-2.19,8.53-3.13.61-4.32-1.17-5.43-3.62-6.63-14.7-16.04-27.95-22.39-42.8-.53-1.24-1.48-2.39-3.02-1.95-1.66.48-1.4,2.08-1.3,3.34.31,3.74.3,7.59,1.21,11.19,3.42,13.53,3.57,27.57,6.83,41.11.77,3.2,1.36,6.26-2.35,8.34-3.72,2.08-5.67-.21-8.21-2.4-13.81-11.89-27.79-23.58-41.73-35.31-.22-.19-.7-.07-2.25-.19Z"/>
  <path class="cls-1" d="m117.24,454.97c-22.46,1.26-33.84-10.28-40.49-25.02-7.08-15.69,6.89-39.17,24.08-41.42,3.47-.45,3.91,1.44,3.57,3.97-.42,3.08-2.91,4.09-5.48,5.02-12.7,4.6-17.67,14.82-14.57,28,2.98,12.66,12.93,16.81,23.44,20.14,5.15,1.63,10.71,1.48,16.2.33,18.38-3.87,26.35-24.45,15.17-39.57-3.09-4.18-7.72-5.86-12.5-7.08-2.84-.73-4.17.86-4.59,3.53-.8,5.01-1.67,10-2.46,15.01-.34,2.16-.54,4.24-3.7,3.49-2.54-.6-4.06-1.64-3.49-4.63,1.53-7.92,2.97-15.86,4.38-23.8.42-2.36,1.37-4.12,4.06-3.28,9.25,2.89,18.98,2.43,28.38,4.23,2.43.46,5.37.63,5.34,3.81-.03,3-3,3.14-5.14,3.24-4.81.22-4.89,2.52-2.87,5.84,3.86,6.35,5.35,13.25,4.38,20.52-2.02,15.08-15.74,27.27-30.82,27.67-1.5.04-3.01,0-2.9,0Z"/>
  <path class="cls-1" d="m858.58,355.58c15.09.03,25.57,10.66,23.96,24.3-.07.56,0,1.18-.23,1.67-1.72,3.83-6.01,8.45,3.21,8.29,1.57-.03,1.6,2.76,1.57,4.42-.04,2.37-1.98,3.24-3.81,3.51-10.46,1.54-20.28,5.57-30.55,7.78-6.25,1.34-12.04,4.13-18.39,5.25-8.36,1.48-14.95-.95-19.6-7.83-5.95-8.81-6.92-18.45-3.51-28.53.55-1.64,1.36-3.11,2.8-4.14,1.26-.9,2.67-1.64,4.17-.71,1.37.86,2.08,2.31,1.67,3.9-.41,1.62-1.03,3.23-1.84,4.69-3.87,7.04-3.24,14.14,1.86,19.68,4.2,4.56,14.26,6.65,19.98,4.22,1.79-.76,3.67-1.92.96-3.28-11.75-5.87-13.43-15.72-9.9-26.69,3.38-10.51,14.56-16.56,27.65-16.53Zm-4.44,40.6c3.68.46,7.57-1.01,11.43-2.47,7.74-2.92,12.39-11.02,10.52-18.17-2.3-8.79-8.98-13.34-17.97-12.15-5.85.78-11.22,2.71-15.87,6.57-2.2,1.83-4.43,3.41-5.05,6.43-2.21,10.67,5.38,19.87,16.94,19.79Z"/>
  <path class="cls-1" d="m918.3,478.31c-.22,7.29.87,14.65-1.69,21.81-3.64,10.21-10.67,14.08-23.83,13.16-7.61-.53-16.93-7.68-17.34-16.42-.35-7.5-.61-15.04-.79-22.54-.12-4.72-1.98-5.87-6.02-5.82-6.59.08-13.18.04-19.76-.02-2.28-.02-4.66.06-4.52-3.44.13-3.05.89-4.9,4.52-4.92,21.83-.12,43.67-.37,65.5-.66,3.06-.04,3.95,1.5,3.94,4.16-.02,4.89,0,9.79,0,14.68Zm-22.14-9.9c-3.58,0-7.15-.08-10.73.03-1.98.06-3.74.58-3.61,3.24.34,6.76.42,13.55.96,20.29.3,3.77,1.39,7.33,5.06,9.58,5.3,3.26,10.13,3.36,15.84.27,5.36-2.9,6.91-7.04,7.03-12.38.06-2.63.16-5.35-.41-7.88-.95-4.19,2.52-9.45-.93-12.3-3.41-2.82-8.74-.57-13.21-.86Z"/>
  <path class="cls-1" d="m640.01,856.95c.31-11.88-5.31-21.64-13.91-29.77-6.88-6.51-15.4-5.89-23.23-2.53-7.44,3.2-13.4,8.53-13.27,17.85.03,2.07.06,4.14.06,6.2,0,3.54-2.61,3.45-5.09,3.8-3.22.45-3.35-1.58-3.35-3.78.02-17.34,6.38-30.63,26.49-32.5,21.88-2.03,39.39,12.37,40.69,34.79.56,9.6-.03,18.87-6.41,27.18-11.4,14.86-34.81,17.14-47.57,4-1.64-1.69-5.05-3.8-2.15-6.37,2.44-2.16,5.8-2.98,9.05.19,11.71,11.43,29.18,8.19,36.77-6.53,2-3.88,2.01-7.94,1.91-12.54Z"/>
  <path class="cls-1" d="m189.09,230.79c.08-11.25,7.15-20.32,18.63-22.97,4.48-1.03,4.1-2.22,1.27-4.69-4.4-3.83-8.77-7.69-13.16-11.52-2.09-1.82-3.26-3.86-.98-6.23,2.23-2.33,4.48-2.1,6.85.14,15.05,14.2,29.98,28.52,45.62,42.07,1.76,1.52,4.31,3.08,3.2,6.02-1.12,2.99-3.75,3.45-6.58,2.82-2.71-.6-3.28.88-3.31,3.1-.19,14.15-20.35,25.52-33.58,16.59-7.28-4.91-14.25-9.73-17.05-18.72-.7-2.25-.8-4.38-.91-6.61Zm7.36-1.2c-.03,7.59,10.36,18.79,19.48,21.02,10.98,2.68,20.68-6.66,18.91-17.84-1.57-9.86-8.63-14.91-16.6-18.18-10.2-4.18-21.75,4.3-21.79,15Z"/>
  <path class="cls-1" d="m605.52,123.38c6.33.7,11.35,1.41,16.4,1.75,2.69.18,6.04.75,6.74-3.24.69-3.92,1.23-7.89-2.95-10.57-6.39-4.09-12.02-4.14-18.13.1-1.57,1.09-3.04,2.2-5.11,1.97-1.56-.17-3.08-.61-3.9-1.95-1.05-1.71.56-2.75,1.46-3.85,5.96-7.29,17.24-8.78,27.3-3.62,10.74,5.51,12.94,11.15,8.96,22.56-2.16,6.18-4.08,12.45-6.21,18.64-1.36,3.96-3,7.8.84,11.41,1.08,1.01.85,2.34-.48,3.37-2.8,2.19-9.19.65-9.29-2.78-.2-7.13-3.21-5.89-8.07-4.24-8.43,2.86-16.06-.27-22.43-5.69-4.65-3.95-4.51-9.56-2.73-15.13,1.57-4.88,5.33-7.15,9.92-8.12,2.91-.61,5.97-.5,7.7-.62Zm3.77,24.49c7.71.19,13.86-4.22,15.96-10.81.59-1.85.67-3.76-1.26-4.25-7.01-1.75-13.98-4.72-21.36-3.33-5.7,1.07-9.04,9.01-5.5,12.45,3.49,3.4,7.36,6.49,12.16,5.94Z"/>
  <path class="cls-1" d="m859.76,588.13c-.23,3.53-.72,8.4-.81,13.28-.05,3.08.63,6.18,4.29,7.08,3.84.95,6.84-.06,9.13-3.66,4.84-7.63,4.87-11.93-.45-19.26-1.93-2.65-3.09-5.98-.27-8.05,2.86-2.11,5.14.75,6.86,3.04,6.6,8.8,4.67,26.11-3.58,33.31-5.54,4.84-11.7,3.23-17.65,1.61-6.69-1.82-13.18-4.36-19.81-6.45-3.43-1.08-6.71-2-9.54,1.9-2.05,2.82-4.33.84-4.82-1.53-.77-3.66-.33-7.51,4.25-8.5,4.34-.94,4.82-3.12,3.52-6.88-2.14-6.15-1.31-12.31,1.19-18.15,2.96-6.91,8.79-10.08,15.24-8.75,9.07,1.88,12.34,5.7,12.45,14.58.02,1.69,0,3.39,0,6.43Zm-6.39,3.16s.05,0,.07,0c0-2.82-.13-5.65.03-8.46.27-4.7-2.01-6.93-6.51-7.41-4.64-.5-8.43.6-9.45,5.7-.99,4.97-1.62,10.03-.11,15.05.97,3.22,9.89,9.81,12.79,8.81,4.87-1.67,2.56-6.34,3.14-9.76.22-1.28.04-2.63.04-3.94Z"/>
  <path class="cls-1" d="m283.06,793.74c-9.4-.44-15.14-3.67-20.82-7.03-1.61-.95-3.04-2.1-4.98-2.53-3.02-.67-6.16-1.6-8.37,1.21-2.49,3.16-1.93,6.83-.13,10.13,3.31,6.05,11.59,9.04,18.01,6.15,3.04-1.37,4.88-.55,7.01,1.31,2.24,1.96,2.34,3.51-.23,5.34-6.1,4.34-12.6,3.72-18.78.97-5.54-2.47-9.87-6.82-13.31-11.89-4.15-6.11-2.69-11.96,1.52-17.15,4.97-6.13,8.74-13.19,14.69-18.56,2.38-2.15,3.26-4.88,2-8.2-.66-1.74-1.93-4.39,1.44-4.85,2.63-.35,5.41.04,6.5,3.17.36,1.04.46,2.24.36,3.35-.38,4.38,1.68,5.86,5.92,6.22,7.51.64,14.23,3.08,18.54,10.05,2.81,4.55,3.57,9.25,1.06,13.89-2.7,4.98-6.56,8.82-10.44,8.44Zm-4.82-7.26c6.13-.15,10.69-6.19,8.33-11.01-2.96-6.04-14.56-11.19-20.91-8.86-4.09,1.5-8.26,4.3-9.17,8.47-.92,4.2,4.73,2.99,6.9,5.12,1.68,1.66,4.15,2.52,6.29,3.7,2.67,1.48,5.52,2.34,8.57,2.58Z"/>
  <path class="cls-1" d="m388.91,96.5c7.81.03,12.12,3.43,14.29,10.58,2.62,8.6,5.27,17.2,7.8,25.83.68,2.31,1.69,4.09,4.09,4.95,2.06.74,4.6,1.2,3.29,4.58-1.19,3.07-4.47,3.71-5.96,2.47-7.83-6.54-11.88-1.31-16.79,4.11-2.68,2.96-7.14,4.14-11.2,4.9-6.83,1.29-12.39-1.98-14.77-8.29-2.98-7.9-1.07-15.21,5.19-18.82,5.36-3.08,10.96-5.77,16.34-8.83,3.34-1.9,6.84-4.21,4.42-8.83-2.13-4.06-6.18-5.92-10.42-4.86-6.23,1.56-13.09,2.89-13.73,11.63-.22,2.93-2.92,4.63-5.79,4.06-2.83-.56-1.68-3.37-1.67-5.25,0-7.1,4.52-11.35,10.12-14.41,4.81-2.63,10.32-3.24,14.8-3.84Zm12.32,34.57c-.33-2.44-.98-5.15-2.22-7.7-.75-1.54-2.03-2.83-3.46-1.64-4.83,4.01-11.17,5.27-16.01,9.15-3.01,2.42-4.29,5.66-3.38,9.49.8,3.35,2.83,5.63,6.32,6.36,7.98,1.68,18.82-7.18,18.74-15.66Z"/>
  <path class="cls-1" d="m562.52,859.34c2.6,17.69-16.69,32.76-33.25,24.56-6.95-3.44-10.67-9.21-12.48-16.43-1.91-7.61-1.88-7.82,6.1-8.96,7.25-1.04,14.57-1.55,21.85-2.35,2.04-.23,4.13-.42,6.06-1.06,4.68-1.54,5.19-3.45,2.24-7.4-9.25-12.4-19.93-12.5-29.41-.3-.91,1.17-1.78,2.62-3.02,3.25-1.64.83-3.8,1.15-5.33-.24-1.45-1.32.02-2.8.56-4.09,4.81-11.53,13.23-16.01,26.19-13.99,10.92,1.7,19.43,10.95,20.47,22.36.17,1.86.02,3.76.02,4.65Zm-7.47,6.87c-.09-2.06.01-4.87-2.82-4.52-8.51,1.06-16.99,2.45-25.41,4.08-3.4.66-3.4,3.07-1.31,5.45,2.74,3.13,5.85,5.82,9.68,7.53,7.72,3.44,19.72-4.16,19.86-12.55Z"/>
  <path class="cls-1" d="m688.76,791.19c.33,1.71.29,3.35-.62,4.92-1.02,1.76-2.41,3-4.52,2.77-2.42-.26-1.94-2.36-2.19-3.94-1.45-9.42,1.97-16.38,10.19-21.32,9.26-5.56,18.64-6.41,27.52-.1,11.4,8.1,17.73,22.29,11.21,35.42-6.78,13.64-24.84,17.5-36,6.89-2.44-2.31-6.01-4.66-6.53-7.46-.74-4,4.67-3.87,7.06-6.02,6.16-5.53,13.04-10.15,20.23-14.29,4.53-2.61,4.45-5.79,0-8.35-9.8-5.64-16.92-4.37-24.36,4.22-1.87,2.16-2.73,4.45-1.99,7.25Zm37.1,8.64c-.05-8.35-2.15-9.82-7.94-6.14-6.33,4.02-12.32,8.59-18.41,12.99-1.77,1.28-2.7,3.14-.29,4.47,6.64,3.66,13.64,5,20.62,1.11,5.29-2.94,5.79-8.35,6.02-12.43Z"/>
  <path class="cls-1" d="m108.66,499.53c3.17,2.46,4.25,5.79,5.05,8.89,1.73,6.76,5.98,9.58,12.64,9.63,2.78.02,5.55.33,9.23.57-2.17,3.65-4.91,5.82-7.61,7.85-5,3.76-6.64,8.24-4.43,14.25,1.02,2.77,2.58,6.95.69,8.5-2.35,1.92-5.64-1.4-7.54-3.16-5.58-5.17-10.53-4.2-15.87,0-1.45,1.14-3.27,1.83-4.96,2.65-2.53,1.24-3.03,0-2.57-2.23.19-.92.58-1.79.77-2.71,1.63-7.81,2.57-15.27-6.67-19.53-1.78-.82-4.3-2.89-3.64-5.18.75-2.56,3.85-2.18,5.93-1.79,10.58,1.97,13.57-5.67,16.89-12.98.67-1.48,1.31-2.98,2.1-4.77Z"/>
  <path class="cls-1" d="m141.04,321.41c16.56-.74,30.41,10.56,30.99,25.29.54,13.8-10.49,25.79-24.37,26.48-13.81.68-29.15-11.81-29.77-23.92-.68-13.35,9.72-29.14,23.15-27.84Zm3.18,8.76c-12.1-.17-17.11,2.93-18.47,10.33-1.15,6.29-.79,12.53,4.82,16.94,6.83,5.37,14.32,9.69,23.29,6.42,6.32-2.3,10.56-7.27,11.42-14.22.82-6.61-3.25-10.9-8.06-14.48-4.66-3.46-10.07-4.87-13-4.99Z"/>
  <path class="cls-1" d="m151.65,689.34c-1.06-14.1,15-26.48,30.02-26.47,12.79.01,23.98,12.16,24.08,26.17.09,12.48-15.47,26.47-29.54,26.57-13.32.09-24.51-11.88-24.56-26.27Zm7.43,1.44c-.23,10.04,8.16,18.71,17.26,16.88,5.36-1.08,10.75-3.25,14.87-7.36,9.8-9.79,8.81-22.26-2.18-27.79-11.57-5.82-29.65,5.21-29.94,18.26Z"/>
  <path class="cls-1" d="m148.28,284.72c-.13-12.34,10.88-24.22,22.68-24.48,16.33-.37,31.21,11.61,31.17,25.48-.04,11.58-7.56,26.78-23.95,26.67-12.24-.08-30.95-11.26-29.9-27.67Zm7.53-.91c0,11.72,15.59,23.37,26.86,20.26,9.02-2.49,11.55-6.05,12.17-15.15.6-8.67-4.83-12.9-11.08-16.75-6.23-3.84-12.75-5.92-19.64-1.77-5.05,3.04-8.86,7.05-8.31,13.41Z"/>
  <path class="cls-1" d="m539.08,98.7c.2,11.51-2.39,22.83-2.42,34.31,0,1.72-.1,3.48-2.28,3.97-2.37.53-4.31-.43-5.06-2.55-1.75-4.94-3.45-3.95-6.9-1.12-5.74,4.71-12.55,4.45-19.15,1.47-6.12-2.76-8.94-7.99-9.05-14.42-.2-11.66,1.01-23.26,1.97-34.86.25-3.06,1.59-3.75,4.3-3.65,2.77.1,3.53,1.47,3.4,3.96-.53,9.57-1.13,19.14-1.44,28.72-.15,4.83-.61,10.09,4.56,13.03,5.6,3.2,11.26,2.6,16.52-.85,5.06-3.32,6.24-8.8,6.7-14.25.66-7.86.88-15.76,1.05-23.64.06-3.01.87-4.47,4.14-4.5,3.68-.03,3.78,2.11,3.68,4.8-.11,3.19-.03,6.39-.03,9.59Z"/>
  <path class="cls-1" d="m840.01,302.97c-7.32.23-12.39,2.18-17.29,4.61-5.56,2.75-11.05,5.64-16.62,8.38-2.13,1.05-4.38,2.62-6.13-.79-1.58-3.08-.6-4.69,2.32-6.22,12.63-6.64,25.98-11.8,38.35-18.95,1.94-1.12,4.38-2.28,6.29-.48,1.7,1.6.9,3.85-.18,5.75-1.65,2.91-.27,4.39,2.37,5.66,9.22,4.45,13.07,12.93,10.77,22.68-.99,4.19-3.22,6.96-7.07,8.83-10.14,4.93-20.19,10.03-30.26,15.1-2.16,1.09-4.33,3.08-5.93-.57-1.35-3.07-.8-5.73,2.56-6.87,7.17-2.43,13.15-7.3,20.27-9.74,4.42-1.52,7.91-4.38,11.29-7.28,4.01-3.43,2.87-8.38.78-11.93-2.75-4.68-6.89-8.6-11.52-8.18Z"/>
  <path class="cls-1" d="m135.27,649.85c-9.02-3.31-14.01-8.86-15.53-17.73-1.49-8.73.73-14.95,9.08-18.28,9.78-3.9,19.26-8.44,29.01-12.38,1.35-.55,2.92-.96,4.34-.83,2.48.23,3.22,2.57,3.66,4.46.53,2.24-1.76,2.45-3.25,3.1-9.29,4.01-18.66,7.85-27.85,12.1-7.46,3.45-9.41,7.74-7.4,14.62,2,6.86,8.22,11.12,15.64,9.87,8.73-1.47,16.91-4.91,24.99-8.48,1.89-.83,3.67-1.91,5.55-2.75,2.68-1.21,4.16-.09,5.13,2.53.89,2.42,1.23,4.69-1.68,5.55-13.91,4.12-26.71,10.92-40.13,16.23-1.67.66-3.55,1.58-5.44.6-1.38-.71-2.53-1.77-2.44-3.49.17-3.23,3.28-3.16,6.32-5.09Z"/>
  <path class="cls-1" d="m436.18,108.27c.87,7.48,1.79,15.31,2.69,23.14.19,1.68.43,3.35.53,5.03.14,2.32-.39,4.03-3.33,4.03-2.72,0-3.93-.86-4.32-3.8-1.94-14.69-4.18-29.35-6.23-44.02-.24-1.74-1.1-4.08,1.34-4.88,2.5-.82,5.04-.1,6.36,2.32,2.14,3.9,3.75,5,5.16-.33.14-.52.49-1.03.85-1.45,6.26-7.28,24.85-4.63,28.82,4.06,2.48,5.43,2.74,11.23,3.32,17.04.71,7.09,1.99,14.12,2.96,21.18.41,2.98.36,5.7-3.8,5.94-3.71.21-4.31-2.08-4.56-4.97-.75-8.6-1.54-17.2-2.38-25.79-1.16-11.95-5.05-14.15-11.45-14.04-11.78.19-13.7,3.45-15.98,13.95-.16.72-.02,1.5-.02,2.6Z"/>
  <path class="cls-1" d="m751.2,230.89c3.35-.28,7.41-1.94,10.66-5.4,5.79-6.16,11.54-12.35,17.39-18.44,1.73-1.8,3.51-4.48,6.43-1.39,2.62,2.77,1.45,4.81-.87,7.16-9.88,10.01-19.59,20.19-29.41,30.27-1.46,1.49-2.74,4.3-5.29,2.93-2.63-1.41-2.01-3.95-.88-6.43,1.42-3.12.09-4.17-3.26-4.27-7.89-.23-16.27-6.5-18.68-13.96-1.47-4.55-.38-8.85,2.51-12.74,7.19-9.69,16.76-17.2,24.26-26.61,1.82-2.28,4.06-2.45,6.19-.04,2.02,2.29,1.06,3.84-.81,5.71-6.63,6.63-13.11,13.4-19.62,20.13-3.61,3.73-5.93,7.95-3.66,13.19,2.57,5.94,6.86,9.8,15.04,9.91Z"/>
  <path class="cls-1" d="m827.34,627.61c16.74.07,32.25,14.44,31.31,28.41-.81,11.95-11.54,23.5-21.96,23.34-2.03-.03-5.7,1.58-5.78-2.3-.06-3.29,1.65-6.18,5.76-6.33,4.9-.17,9.07-1.44,11.94-6.05,4.64-7.46,3.78-14.38-3.26-20.53-4.76-4.15-10.41-6.79-16.47-8.33-6.23-1.58-11.41,1.05-15.67,7.45-3.11,4.66-2.73,10.64.98,15.58.56.75,1.2,1.47,1.65,2.29,1.55,2.86,2.12,6.23-.52,8.24-2.92,2.23-4.75-1.2-6.2-3.01-5.47-6.8-7.46-14.58-3.32-22.58,4.6-8.89,10.39-16.87,21.55-16.17Z"/>
  <path class="cls-1" d="m782.91,758.31c1.12,13.36-16.53,29.32-30.11,22.75-2.08-1.01-5.49-1.22-3.97-4.69,1.28-2.92,3.92-4.58,7.41-3.4,6.97,2.37,12.4.8,16.21-4.76,5.09-7.45,5.11-12.7-.15-18.81-4.37-5.09-8.17-10.9-15.65-12.09-5.05-.8-9.84-.82-13.55,3.32-3.99,4.45-6.25,9.47-3.75,15.48,1.13,2.71,1.28,4.94-1.2,7.06-3.22,2.74-5.03,2.27-6.39-1.85-6.26-18.94,7.13-31.34,22.96-32.68,9.03-.76,15.87,5.48,21.41,11.95,4.26,4.97,7.6,10.84,6.78,17.72Z"/>
  <path class="cls-1" d="m647.53,157.18c.02-13.17,11.75-27.88,24.28-30.47,11.98-2.47,27.58,10.67,26.76,22.76-.14,2.09,1.3,6.07-3.21,5.62-3.32-.34-5.6-2.26-4.9-6.14.88-4.88-1.28-8.24-5.08-11.05-9.4-6.95-21.45-3.27-26.9,8.34-1.45,3.09-2.3,6.34-2.59,9.75-.92,10.76,5.82,18.09,16.62,18.2,2.13.02,3.52-1.01,4.85-2.41,1.57-1.66,3.28-3.14,5.58-3.62,2.55-.54,4.5.74,5.76,2.71,1.61,2.52-1.18,3.06-2.37,4.21-6.88,6.66-14.76,8.96-23.63,4.49-9.11-4.59-15.46-11.3-15.19-22.39Z"/>
  <path class="cls-1" d="m318.59,790.22c18.15.48,29.71,17.39,23.04,33.59-5.83,14.15-18.88,25.94-34.75,18.68-8.8-4.02-15.65-13.3-14.76-20.77.27-2.25.36-4.83,3.68-4.5,2.67.26,4.36,1.5,4.77,4.55,1.25,9.37,4.79,13.46,12.48,14.99,6.45,1.28,13.31-2.08,17.67-8.62,2.21-3.32,3.53-7,4.81-10.75,3.51-10.3-7.39-21.02-17.59-19.76-2.65.33-4.36,2.06-6.04,3.85-3.06,3.27-6.55,2.37-8.91-.22-2.7-2.96.46-4.93,2.58-6.7,3.93-3.28,8.43-4.82,13.01-4.33Z"/>
  <path class="cls-1" d="m457.64,848.5c.24,7.64-1.89,16.08-3.2,24.62-.63,4.08-.39,7.24,5.09,6.77,2.13-.18,3.66.86,3.55,3.32-.12,2.48-1.45,4.14-3.92,3.73-5.68-.94-6.8,2.09-6.49,6.74.05.73-.23,1.48-.32,2.23-.38,3.28-.59,6.83-5.41,5.84-4.69-.96-3.68-4.14-2.81-7.45,2.1-8.04,2.01-8.06-5.97-10.04-1.94-.48-4.41-.36-3.84-3.57.48-2.76,2.3-4.07,4.82-3.48,6.19,1.44,7.45-1.41,8.12-7.03.98-8.22,1.6-16.46,2.61-24.67.57-4.63-.68-7.38-5.96-6.87-2.59.25-4.51-.51-4.27-3.69.23-2.95,2.14-3.62,4.69-3.63,10.78-.05,13.67,3.41,13.31,17.17Z"/>
  <path class="cls-1" d="m583.21,78.3c-6.04-.19-9.72,4.21-8.62,10.07.52,2.77,2.82,2.67,4.66,3.35,2.22.82,5.29.94,4.22,4.58-.89,3.01-3.39,2.66-5.58,1.91-4.2-1.44-5.54,1.07-6.15,4.34-2.08,11.06-5.49,21.86-6.09,33.21-.15,2.94,0,6.86-5.2,5.97-3.22-.55-4.23-1.33-3.36-5.13,2.78-12.06,4.82-24.28,7.21-36.43.77-3.95-2.31-4.58-4.75-5.86-1.74-.91-4.5-1.31-4.05-3.93.49-2.88,3.2-2.72,5.49-2.62,4.01.19,6-1.33,6.8-5.63,1.7-9.12,8.67-13.04,17.8-10.89,2.65.62,3.24,2.35,3.19,4.54-.05,2.55-.45,2.68-5.56,2.52Z"/>
  <path class="cls-1" d="m368.37,882.06c3.97.66,7.12-.35,8.83-4.28,2.02-4.63,1.07-7.02-3.83-8.28-3.18-.82-5.63-2.15-4.37-5.66,1.24-3.49,4.36-2.45,6.65-1.23,3.98,2.12,5.89.96,6.61-3.24,2.09-12.25,7.82-23.48,10-35.7.53-2.95,2.36-3.04,4.55-2.59,2.83.58,3.59,2.61,2.92,5.11-1.64,6.16-3.38,12.29-5.2,18.39-1.72,5.74-3.54,11.46-5.45,17.15-1.02,3.04-.76,5.04,2.93,5.73,2.5.47,5,1.76,4.23,4.85-.69,2.77-3.41,2.72-5.63,2.24-3.88-.82-5.65.36-6.73,4.41-2.29,8.64-6.02,10.93-15.34,10.31-2.85-.19-6.62.23-6.53-4.22.09-4.85,4-2.48,6.36-3Z"/>
  <path class="cls-1" d="m790.58,680.03c4.71.97,8.29,3.34,11.86,5.8,6.17,4.27,12.42,8.4,18.63,12.61,3.19,2.16,5.96,3.1,8.03-1.51,1.51-3.35,4.13-1.77,6.13-.54,2.73,1.68,1.18,3.37-.41,4.93-3.31,3.27-1.83,5.49,1.57,7.43,2.25,1.28,4.82,2.14,6.38,4.47,1.35,2.02,1.17,3.88-.29,5.68-1.71,2.1-3.59,1.58-5.42.17-2.23-1.71-4.48-3.42-6.63-5.23-3.47-2.91-5.6-1.31-6.57,2.23-.76,2.77-.99,5.42-4.9,3.72-3.79-1.64-2.3-4.12-.93-6.41,2.83-4.76,1.79-7.84-3.4-10.1-7.28-3.18-13.17-8.61-19.66-13.06-3.46-2.37-5.97-2.62-8.21,1.46-1.31,2.38-3.25,4.58-6.31,2.4-3.18-2.27-1.84-4.89-.02-7.29,2.67-3.53,5.86-6.3,10.16-6.77Z"/>
  <path class="cls-1" d="m206.88,767.88c-.5-1.74-1.86-2.79-3.09-3.94-2.37-2.2-3.52-4.8-.83-7.28,3-2.77,4.37.61,5.56,2.34,2.72,3.94,5.1,4.31,8.05.3,5.49-7.46,13.33-12.69,19.17-19.85,2.46-3.02,3.71-5.57-.23-8.43-2.34-1.7-2.58-4.56-.74-6.49,2.13-2.24,4.38-.68,6.29,1.18,7.8,7.56,8.12,9.62,1.58,18-5.57,7.13-12.68,12.78-19.18,19-3.22,3.07-6.25,5.82-1.45,10.05,1.42,1.25,2.33,3.1.39,4.89-1.68,1.55-3.62,1.62-4.99-.06-3.83-4.73-6.76-2-9.71.92-1.07,1.05-1.93,2.31-2.96,3.41-2.31,2.47-4.97,1.89-7.01.01-2.21-2.04-.63-4.18,1.04-5.81,1.88-1.84,3.94-3.48,5.95-5.18.99-.84,2.21-1.49,2.17-3.06Z"/>
  <path class="cls-1" d="m698.58,195.4c.06-.2.14-1.44.75-2.31,6.24-8.91,11.44-18.61,19.14-26.42,2.88-2.93,3.54-4.97,0-7.65-2.06-1.55-4.66-3.48-2.36-6.45,2.11-2.73,4.88-1.47,7.03.17,3.31,2.51,5.02,1.03,6.43-2.02.71-1.53,1.57-3,2.2-4.56,1.44-3.63,3.58-3.55,6.64-1.8,3.21,1.83,3.24,3.72,1.01,6.23-1,1.13-1.84,2.39-2.86,3.49-3.4,3.62-4.44,6.82.94,9.73,1.76.95,3.18,2.67,1.39,5.13-1.8,2.47-3.49,2.27-5.61.53-3.99-3.28-6.84-2.23-9.61,2.01-4.61,7.07-9.58,13.92-14.67,20.65-2.26,2.99-2.28,5.22.43,7.8,2.2,2.09,4.93,5.08,2,7.67-3.3,2.91-5.84-.55-7.65-3.12-1.86-2.65-5.83-3.98-5.18-9.08Z"/>
  <path class="cls-1" d="m887.6,543.61c-.35.01-1.95-.94-2.72.51-.98,1.85.47,3.2,1.73,4.32,3.49,3.1,4.95,6.9,4.57,11.54-.16,1.92-.62,3.42-2.91,3.18-2.1-.22-5.22.53-5.23-2.74-.02-5.26-.71-9.89-4.96-13.71-5.66-5.08-12.55-6.38-19.64-7.41-4.81-.7-9.7-.72-14.4-2.24-2.68-.87-3.48-2.55-3-5.16.55-3.03,2.72-3.42,5.09-2.85,13.33,3.22,27.1,3.44,40.51,6.13.92.18,1.86.31,2.73.62,2.25.82,5.5.32,4.97,4.54-.52,4.11-3.3,3.25-6.73,3.27Z"/>
  <path class="cls-1" d="m807.77,232.58c-.28,1.43-1.54,2.02-2.42,2.96-2.52,2.69-2.43,4.64,1.77,5.05,4.43.43,8.4,1.96,11.59,5.14,1.09,1.09,3.01,2.11,1.33,4.14-1.48,1.78-3.06,3.55-5.69,2.07-1.96-1.1-3.89-2.28-5.74-3.57-4.39-3.04-8.76-3.34-13.78-1.2-7.04,3-13.08,7.25-18.61,12.42-1.91,1.78-4.09,3.28-6.17,4.89-2.75,2.14-4.37.46-5.98-1.69-1.72-2.31-.61-3.65,1.28-5.09,11.77-8.98,23.49-18.03,35.23-27.06,1.51-1.17,3.03-2.44,5.05-1.16,1.11.7,2.16,1.55,2.14,3.09Z"/>
  <path class="cls-1" d="m498.19,861.48c0,7.14,0,14.29,0,21.43,0,2.75.06,5.39-3.89,5.42-3.61.03-3.78-2.25-3.73-4.9.04-1.86.31-4.16-2.01-4.7-2.33-.55-3.09,1.82-3.96,3.34-2.07,3.6-5.47,5.05-9.17,5.92-2.14.5-4.8,1.06-5.21-2.34-.31-2.56.13-4.44,3.49-5.2,11.7-2.66,16.36-8.47,16.87-20.41.28-6.57.34-13.15.45-19.73.05-2.67-.35-5.53,3.64-5.63,4.52-.12,3.83,3.24,3.86,5.93.08,6.95.03,13.91.03,20.86-.13,0-.25,0-.38,0Z"/>
  <path class="cls-1" d="m789.26,296.04c-2-.24-2.88-1.48-3.35-2.93-.65-1.98-.13-3.48,1.81-4.73,8.65-5.58,17.24-11.27,25.79-17,4.04-2.71,7.9-5.69,11.96-8.37,2.06-1.36,4.45-2.63,6.21.51,1.44,2.56,1.65,5-1.23,6.83-13.12,8.31-26.23,16.63-39.36,24.93-.61.39-1.35.58-1.83.77Z"/>
  <path class="cls-1" d="m770.84,702.92c1.71.12,2.9,1,4.02,2.03,10.49,9.66,21.78,18.36,33.03,27.09,2,1.55,2.66,2.83,1.18,5.1-1.49,2.3-3.34,3.11-5.66,1.7-2.4-1.46-4.75-3.06-6.83-4.94-9.34-8.42-19.28-16.08-29.3-23.64-1.45-1.09-2.82-2.22-1.91-4.13,1.07-2.24,3.26-2.93,5.47-3.22Z"/>
  <path class="cls-1" d="m189.44,745.65c-2.36-.52-4.13-1.53-5.26-3.4-1.32-2.19.71-3.1,1.91-3.98,10.3-7.57,19.59-16.34,29.37-24.52,2.15-1.8,4.45-3.45,6.83-4.95,2.45-1.55,3.73.18,4.92,2.06,1.19,1.88,1.11,3.22-.81,4.77-11.52,9.33-22.93,18.8-34.39,28.21-.85.7-1.8,1.27-2.57,1.82Z"/>
  <path class="cls-1" d="m426.94,834.07c-1.52,11.09-4.41,23.13-7.36,35.16-.54,2.19-1.09,4.38-1.48,6.59-.44,2.51-.55,5-4.35,4.14-3.43-.77-4.03-2.73-3.32-5.79,2.49-10.79,4.95-21.58,7.34-32.39.69-3.12,1.25-6.28,1.63-9.44.34-2.81.58-5.27,4.5-4.88,3.79.38,3.11,3,3.05,6.6Z"/>
  <path class="cls-1" d="m372.24,816c-.85,2.11-1.76,4.57-2.82,6.96-5.03,11.33-9.07,23.02-13.07,34.73-1.37,4.01-3.46,4.85-7.14,3.1-1.89-.9-2.43-1.83-1.57-3.93,5.75-14.07,11.38-28.19,17-42.31.76-1.9,1.45-3.49,3.98-2.74,1.95.58,3.42,1.48,3.61,4.18Z"/>
  <path class="cls-1" d="m844.95,250.68c2.25.36,4.2,1.36,4.74,3.86.37,1.73-5.32,7.02-7.23,6.81-2.55-.28-3.46-2.39-3.46-4.36-.01-3.65,2.32-5.64,5.96-6.3Z"/>
  <path class="cls-1" d="m349.43,875.13c-.59,2.5-.38,6.2-4.45,6.2-2.56,0-4.57-1.98-4.25-4.83.32-2.9.72-6.08,4.99-5.99,2.97.06,3.85,1.69,3.71,4.62Z"/>
  <path class="cls-1" d="m414.48,894.99c-1.06,1.5.55,5.39-3.89,5.02-3.35-.28-5.3-1.58-4.67-5.36.39-2.37-.07-5.24,3.77-4.87,2.88.28,5.26,1.09,4.79,5.21Z"/>
  <path class="cls-1" d="m179.66,753.37c-1.16,2.98-3.6,4.69-6.65,4.81-2.34.09-4.43-1.63-4.32-4.15.15-3.36,3.17-4.56,5.84-4.91,2.53-.34,4.49,1.32,5.14,4.26Z"/>
  <path class="cls-1" d="m814.75,747.08c1.42-2.16,2.55-5,5.22-4.61,2.9.42,4.88,2.88,5.11,5.99.17,2.29-1.08,4.43-3.51,4.12-3.11-.39-5.15-2.77-6.81-5.5Z"/>
  <path class="cls-1" d="m654.69,388.98c0-6.57-.01-13.15,0-19.72,0-2.41.26-4.49,3.61-4.38,10.88.38,21.78.36,32.64.97,10.83.61,18.81,6.54,20.53,14.52,4.02,18.58-4.6,30.61-23.73,32.12-9.71.77-19.53.24-29.29.42-3.55.07-3.89-2.05-3.87-4.77.05-6.39.01-12.77.01-19.16.03,0,.05,0,.08,0Z"/>
  <path class="cls-1" d="m327.46,629.17c-23.04,7.72-36.88-10.27-39.17-27.36-1.56-11.65-.98-22.86,5-33.27,6.22-10.84,16.2-14.88,28.06-13.88,11.23.95,19.66,6.39,23.91,17.53,5.68,14.88,4.72,29.39-1.55,43.78-1.53,3.5-3.18,5.76-6.32,1.3-.42-.6-1.11-1.01-1.68-1.49-7.64-6.51-10.45-6.06-16.07,2.32-1.47,2.2-.38,3.39,1.13,4.74,2.17,1.94,5.24,2.92,6.69,6.33Z"/>
  <path class="cls-1" d="m492.48,632c-3.06.2-6.47-.6-9.8-2.11-3.17-1.44-4.48-3.86-4.32-7.19.16-3.31.82-6.28,4.39-7.77,8.44-3.51,17.7-3.19,26.36-5.75,2.5-.74,2.22,1.9,2.3,3.49.69,12.84-5.37,19.2-18.94,19.33Z"/>
</svg>